<svg width="164" height="164" viewBox="0 0 164 164" fill="none" xmlns="http://www.w3.org/2000/svg">
<g clip-path="url(#clip0_8_15)">
<rect width="164" height="164" rx="82" fill="white"/>
<ellipse cx="29.5975" cy="107.551" rx="112.213" ry="98.648" transform="rotate(-28.3482 29.5975 107.551)" fill="#7B1CF4"/>
</g>
<path d="M57.4981 82.2792H65.9916V107H58.6029V104.169C55.1503 106.517 50.823 107.691 45.6211 107.691C41.1556 107.691 37.0585 106.724 33.3297 104.79C29.6008 102.857 26.6086 100.049 24.3528 96.3659C22.1432 92.6831 21.0383 88.2867 21.0383 83.1768C21.0383 78.3432 22.1662 74.0159 24.4219 70.1949C26.6776 66.328 29.785 63.3357 33.744 61.2181C37.7491 59.0545 42.2375 57.9726 47.2093 57.9726C51.2604 57.9726 54.9432 58.6401 58.2577 59.9752C61.5722 61.3102 64.3573 63.2667 66.6131 65.8446L60.9507 71.3688C57.2679 67.686 52.8255 65.8446 47.6236 65.8446C44.217 65.8446 41.1787 66.5812 38.5086 68.0543C35.8846 69.4814 33.8131 71.5069 32.2939 74.1309C30.8208 76.7549 30.0842 79.7472 30.0842 83.1078C30.0842 86.6525 30.8208 89.7138 32.2939 92.2918C33.8131 94.8237 35.8156 96.7572 38.3015 98.0922C40.7874 99.3812 43.5034 100.026 46.4497 100.026C48.5213 100.026 50.5008 99.7034 52.3882 99.0589C54.3217 98.4145 56.025 97.4707 57.4981 96.2278V82.2792ZM117.468 96.0206H108.905V107H100.204V96.0206H73.6882V89.8059L97.5114 58.6632H107.11L84.6676 88.4248H100.481V78.6884H108.905V88.4248H117.468V96.0206Z" fill="white"/>
<defs>
<clipPath id="clip0_8_15">
<rect width="164" height="164" rx="82" fill="white"/>
</clipPath>
</defs>
</svg>
