<svg width="79" height="79" viewBox="0 0 79 79" fill="none" xmlns="http://www.w3.org/2000/svg">
<path d="M25.28 4.74C13.9514 4.74 4.73999 13.9514 4.73999 25.28V53.72C4.73999 65.0486 13.9514 74.26 25.28 74.26H53.72C65.0486 74.26 74.26 65.0486 74.26 53.72V25.28C74.26 13.9514 65.0486 4.74 53.72 4.74H25.28ZM58.46 17.38C60.198 17.38 61.62 18.802 61.62 20.54C61.62 22.278 60.198 23.7 58.46 23.7C56.722 23.7 55.3 22.278 55.3 20.54C55.3 18.802 56.722 17.38 58.46 17.38ZM39.5 22.12C49.0906 22.12 56.88 29.9094 56.88 39.5C56.88 49.0906 49.0906 56.88 39.5 56.88C29.9094 56.88 22.12 49.0906 22.12 39.5C22.12 29.9094 29.9094 22.12 39.5 22.12ZM39.5 25.28C31.6632 25.28 25.28 31.6632 25.28 39.5C25.28 47.3368 31.6632 53.72 39.5 53.72C47.3368 53.72 53.72 47.3368 53.72 39.5C53.72 31.6632 47.3368 25.28 39.5 25.28Z" fill="white"/>
</svg>
