<svg width="79" height="79" viewBox="0 0 79 79" fill="none" xmlns="http://www.w3.org/2000/svg">
<path d="M39.5 0C17.72 0 0 17.72 0 39.5C0 61.28 17.72 79 39.5 79C61.2817 79 79 61.28 79 39.5C79 17.72 61.2817 0 39.5 0ZM56.6275 47.2884C60.4693 50.6991 61.2679 51.9167 61.3985 52.1245C62.9905 54.6491 59.633 54.9565 59.633 54.9565H52.5573C52.5573 54.9565 50.8348 54.9754 49.363 53.9999C46.9638 52.4285 44.4512 49.3819 42.6858 49.9108C41.2037 50.3539 41.2174 52.3564 41.2174 54.0686C41.2174 54.6817 40.6902 54.9565 39.5 54.9565C38.3098 54.9565 37.8152 54.9565 37.288 54.9565C33.4118 54.9565 29.206 53.6513 25.0104 49.2668C19.0751 43.0687 13.8697 30.5833 13.8697 30.5833C13.8697 30.5833 13.5622 29.9547 13.8971 29.5718C14.2767 29.1424 15.3088 29.1974 15.3088 29.1974L22.1698 29.1957C22.1698 29.1957 22.8155 29.3176 23.2792 29.6439C23.6622 29.9118 23.8752 30.4236 23.8752 30.4236C23.8752 30.4236 25.0275 34.2293 26.4959 36.656C29.364 41.3926 30.6984 41.5128 31.6721 41.0027C33.0941 40.2642 32.6304 35.2288 32.6304 35.2288C32.6304 35.2288 32.694 33.0667 31.9521 32.1032C31.3802 31.3578 30.2862 30.9611 29.8088 30.8993C29.4223 30.8495 30.0681 30.1728 30.8907 29.7864C31.9898 29.297 33.4857 29.1716 36.0652 29.1957C38.0728 29.2145 38.6516 29.3348 39.4347 29.5151C41.803 30.0612 41.2174 31.5021 41.2174 36.5615C41.2174 38.1828 40.9941 40.4617 42.2169 41.2174C42.7442 41.5437 44.5508 41.9421 47.7658 36.7213C49.2926 34.2448 50.5068 30.1368 50.5068 30.1368C50.5068 30.1368 50.7575 29.6851 51.1473 29.4618C51.5458 29.2334 51.5338 29.2386 52.0799 29.2386C52.626 29.2386 58.1028 29.1957 59.305 29.1957C60.5054 29.1957 61.632 29.1819 61.8261 29.886C62.1043 30.8976 60.9399 34.3633 57.9894 38.1244C53.1412 44.2967 52.6037 43.7196 56.6275 47.2884Z" fill="white"/>
</svg>
